<?xml version="1.0" encoding="utf-8" standalone="no"?>
<!DOCTYPE svg PUBLIC "-//W3C//DTD SVG 1.1//EN"
  "http://www.w3.org/Graphics/SVG/1.1/DTD/svg11.dtd">
<svg xmlns:xlink="http://www.w3.org/1999/xlink" width="684pt" height="226.459301pt" viewBox="0 0 684 226.459301" xmlns="http://www.w3.org/2000/svg" version="1.1">
 <metadata>
  <rdf:RDF xmlns:dc="http://purl.org/dc/elements/1.1/" xmlns:cc="http://creativecommons.org/ns#" xmlns:rdf="http://www.w3.org/1999/02/22-rdf-syntax-ns#">
   <cc:Work>
    <dc:type rdf:resource="http://purl.org/dc/dcmitype/StillImage"/>
    <dc:date>2024-02-13T13:03:51.438464</dc:date>
    <dc:format>image/svg+xml</dc:format>
    <dc:creator>
     <cc:Agent>
      <dc:title>Matplotlib v3.8.2, https://matplotlib.org/</dc:title>
     </cc:Agent>
    </dc:creator>
   </cc:Work>
  </rdf:RDF>
 </metadata>
 <defs>
  <style type="text/css">*{stroke-linejoin: round; stroke-linecap: butt}</style>
 </defs>
 <g id="figure_1">
  <g id="patch_1">
   <path d="M 0 226.459301 
L 684 226.459301 
L 684 -0 
L 0 -0 
z
" style="fill: #ffffff"/>
  </g>
  <g id="patch_2">
   <path d="M 7.2 219.259301 
L 204.141176 219.259301 
L 204.141176 22.318125 
L 7.2 22.318125 
z
" style="fill: #ffffff"/>
  </g>
  <g id="pane3d_1">
   <g id="patch_3">
    <path d="M 37.152092 184.860969 
L 54.791724 137.813392 
L 53.227635 52.94475 
L 34.82455 91.403201 
" style="fill: #f2f2f2; opacity: 0.5; stroke: #f2f2f2; stroke-linejoin: miter"/>
   </g>
  </g>
  <g id="pane3d_2">
   <g id="patch_4">
    <path d="M 54.791724 137.813392 
L 172.722252 141.5369 
L 174.621018 55.979021 
L 53.227635 52.94475 
" style="fill: #e6e6e6; opacity: 0.5; stroke: #e6e6e6; stroke-linejoin: miter"/>
   </g>
  </g>
  <g id="pane3d_3">
   <g id="patch_5">
    <path d="M 37.152092 184.860969 
L 168.668937 189.499627 
L 172.722252 141.5369 
L 54.791724 137.813392 
" style="fill: #ececec; opacity: 0.5; stroke: #ececec; stroke-linejoin: miter"/>
   </g>
  </g>
  <g id="grid3d_1">
   <g id="Line3DCollection_1">
    <path d="M 45.442069 185.15336 
L 62.232674 138.048331 
L 60.88516 53.136153 
" style="fill: none; stroke: #b0b0b0; stroke-width: 0.8"/>
    <path d="M 72.855156 186.120232 
L 86.831158 138.824997 
L 86.201441 53.768942 
" style="fill: none; stroke: #b0b0b0; stroke-width: 0.8"/>
    <path d="M 100.385128 187.091226 
L 111.523613 139.60463 
L 111.617274 54.40422 
" style="fill: none; stroke: #b0b0b0; stroke-width: 0.8"/>
    <path d="M 128.032733 188.06637 
L 136.310579 140.387248 
L 137.133247 55.042001 
" style="fill: none; stroke: #b0b0b0; stroke-width: 0.8"/>
    <path d="M 155.798728 189.045689 
L 161.1926 141.172866 
L 162.749954 55.6823 
" style="fill: none; stroke: #b0b0b0; stroke-width: 0.8"/>
   </g>
  </g>
  <g id="grid3d_2">
   <g id="Line3DCollection_2">
    <path d="M 38.183734 84.383237 
L 40.363029 176.296913 
L 169.407399 180.761433 
" style="fill: none; stroke: #b0b0b0; stroke-width: 0.8"/>
    <path d="M 43.119199 74.069187 
L 45.087872 163.695038 
L 170.493517 167.909434 
" style="fill: none; stroke: #b0b0b0; stroke-width: 0.8"/>
    <path d="M 47.774993 64.339587 
L 49.55284 151.78629 
L 171.519332 155.771007 
" style="fill: none; stroke: #b0b0b0; stroke-width: 0.8"/>
    <path d="M 52.174234 55.146128 
L 53.7788 140.515013 
L 172.489729 144.288329 
" style="fill: none; stroke: #b0b0b0; stroke-width: 0.8"/>
   </g>
  </g>
  <g id="grid3d_3">
   <g id="Line3DCollection_3">
    <path d="M 172.75916 139.873804 
L 54.761313 136.163261 
L 37.106986 183.049852 
" style="fill: none; stroke: #b0b0b0; stroke-width: 0.8"/>
    <path d="M 173.115649 123.810535 
L 54.467598 120.226102 
L 36.671048 165.545624 
" style="fill: none; stroke: #b0b0b0; stroke-width: 0.8"/>
    <path d="M 173.476104 107.568514 
L 54.170645 104.11322 
L 36.229741 147.825804 
" style="fill: none; stroke: #b0b0b0; stroke-width: 0.8"/>
    <path d="M 173.840593 91.144742 
L 53.8704 87.821693 
L 35.782964 129.886385 
" style="fill: none; stroke: #b0b0b0; stroke-width: 0.8"/>
    <path d="M 174.209184 74.536149 
L 53.566808 71.348535 
L 35.330616 111.723259 
" style="fill: none; stroke: #b0b0b0; stroke-width: 0.8"/>
    <path d="M 174.581946 57.7396 
L 53.259811 54.690689 
L 34.872592 93.332215 
" style="fill: none; stroke: #b0b0b0; stroke-width: 0.8"/>
   </g>
  </g>
  <g id="axis3d_1">
   <g id="line2d_1">
    <path d="M 37.152092 184.860969 
L 168.668937 189.499627 
" style="fill: none; stroke: #000000; stroke-width: 0.8; stroke-linecap: square"/>
   </g>
   <g id="xtick_1">
    <g id="line2d_2">
     <path d="M 45.591787 184.733335 
L 45.1418 185.995746 
" style="fill: none; stroke: #000000; stroke-width: 0.8; stroke-linecap: square"/>
    </g>
    <g id="text_1">
     <!-- 0.0 -->
     <g transform="translate(35.595939 208.947746) scale(0.1 -0.1)">
      <defs>
       <path id="DejaVuSans-30" d="M 2034 4250 
Q 1547 4250 1301 3770 
Q 1056 3291 1056 2328 
Q 1056 1369 1301 889 
Q 1547 409 2034 409 
Q 2525 409 2770 889 
Q 3016 1369 3016 2328 
Q 3016 3291 2770 3770 
Q 2525 4250 2034 4250 
z
M 2034 4750 
Q 2819 4750 3233 4129 
Q 3647 3509 3647 2328 
Q 3647 1150 3233 529 
Q 2819 -91 2034 -91 
Q 1250 -91 836 529 
Q 422 1150 422 2328 
Q 422 3509 836 4129 
Q 1250 4750 2034 4750 
z
" transform="scale(0.015625)"/>
       <path id="DejaVuSans-2e" d="M 684 794 
L 1344 794 
L 1344 0 
L 684 0 
L 684 794 
z
" transform="scale(0.015625)"/>
      </defs>
      <use xlink:href="#DejaVuSans-30"/>
      <use xlink:href="#DejaVuSans-2e" x="63.623047"/>
      <use xlink:href="#DejaVuSans-30" x="95.410156"/>
     </g>
    </g>
   </g>
   <g id="xtick_2">
    <g id="line2d_3">
     <path d="M 72.979804 185.698419 
L 72.605165 186.966209 
" style="fill: none; stroke: #000000; stroke-width: 0.8; stroke-linecap: square"/>
    </g>
    <g id="text_2">
     <!-- 0.2 -->
     <g transform="translate(63.26596 209.958606) scale(0.1 -0.1)">
      <defs>
       <path id="DejaVuSans-32" d="M 1228 531 
L 3431 531 
L 3431 0 
L 469 0 
L 469 531 
Q 828 903 1448 1529 
Q 2069 2156 2228 2338 
Q 2531 2678 2651 2914 
Q 2772 3150 2772 3378 
Q 2772 3750 2511 3984 
Q 2250 4219 1831 4219 
Q 1534 4219 1204 4116 
Q 875 4013 500 3803 
L 500 4441 
Q 881 4594 1212 4672 
Q 1544 4750 1819 4750 
Q 2544 4750 2975 4387 
Q 3406 4025 3406 3419 
Q 3406 3131 3298 2873 
Q 3191 2616 2906 2266 
Q 2828 2175 2409 1742 
Q 1991 1309 1228 531 
z
" transform="scale(0.015625)"/>
      </defs>
      <use xlink:href="#DejaVuSans-30"/>
      <use xlink:href="#DejaVuSans-2e" x="63.623047"/>
      <use xlink:href="#DejaVuSans-32" x="95.410156"/>
     </g>
    </g>
   </g>
   <g id="xtick_3">
    <g id="line2d_4">
     <path d="M 100.48449 186.667614 
L 100.185847 187.940818 
" style="fill: none; stroke: #000000; stroke-width: 0.8; stroke-linecap: square"/>
    </g>
    <g id="text_3">
     <!-- 0.4 -->
     <g transform="translate(91.055088 210.973818) scale(0.1 -0.1)">
      <defs>
       <path id="DejaVuSans-34" d="M 2419 4116 
L 825 1625 
L 2419 1625 
L 2419 4116 
z
M 2253 4666 
L 3047 4666 
L 3047 1625 
L 3713 1625 
L 3713 1100 
L 3047 1100 
L 3047 0 
L 2419 0 
L 2419 1100 
L 313 1100 
L 313 1709 
L 2253 4666 
z
" transform="scale(0.015625)"/>
      </defs>
      <use xlink:href="#DejaVuSans-30"/>
      <use xlink:href="#DejaVuSans-2e" x="63.623047"/>
      <use xlink:href="#DejaVuSans-34" x="95.410156"/>
     </g>
    </g>
   </g>
   <g id="xtick_4">
    <g id="line2d_5">
     <path d="M 128.106594 187.640946 
L 127.884599 188.919599 
" style="fill: none; stroke: #000000; stroke-width: 0.8; stroke-linecap: square"/>
    </g>
    <g id="text_4">
     <!-- 0.6 -->
     <g transform="translate(118.964092 211.99341) scale(0.1 -0.1)">
      <defs>
       <path id="DejaVuSans-36" d="M 2113 2584 
Q 1688 2584 1439 2293 
Q 1191 2003 1191 1497 
Q 1191 994 1439 701 
Q 1688 409 2113 409 
Q 2538 409 2786 701 
Q 3034 994 3034 1497 
Q 3034 2003 2786 2293 
Q 2538 2584 2113 2584 
z
M 3366 4563 
L 3366 3988 
Q 3128 4100 2886 4159 
Q 2644 4219 2406 4219 
Q 1781 4219 1451 3797 
Q 1122 3375 1075 2522 
Q 1259 2794 1537 2939 
Q 1816 3084 2150 3084 
Q 2853 3084 3261 2657 
Q 3669 2231 3669 1497 
Q 3669 778 3244 343 
Q 2819 -91 2113 -91 
Q 1303 -91 875 529 
Q 447 1150 447 2328 
Q 447 3434 972 4092 
Q 1497 4750 2381 4750 
Q 2619 4750 2861 4703 
Q 3103 4656 3366 4563 
z
" transform="scale(0.015625)"/>
      </defs>
      <use xlink:href="#DejaVuSans-30"/>
      <use xlink:href="#DejaVuSans-2e" x="63.623047"/>
      <use xlink:href="#DejaVuSans-36" x="95.410156"/>
     </g>
    </g>
   </g>
   <g id="xtick_5">
    <g id="line2d_6">
     <path d="M 155.846867 188.618442 
L 155.702182 189.902579 
" style="fill: none; stroke: #000000; stroke-width: 0.8; stroke-linecap: square"/>
    </g>
    <g id="text_5">
     <!-- 0.8 -->
     <g transform="translate(146.993751 213.017409) scale(0.1 -0.1)">
      <defs>
       <path id="DejaVuSans-38" d="M 2034 2216 
Q 1584 2216 1326 1975 
Q 1069 1734 1069 1313 
Q 1069 891 1326 650 
Q 1584 409 2034 409 
Q 2484 409 2743 651 
Q 3003 894 3003 1313 
Q 3003 1734 2745 1975 
Q 2488 2216 2034 2216 
z
M 1403 2484 
Q 997 2584 770 2862 
Q 544 3141 544 3541 
Q 544 4100 942 4425 
Q 1341 4750 2034 4750 
Q 2731 4750 3128 4425 
Q 3525 4100 3525 3541 
Q 3525 3141 3298 2862 
Q 3072 2584 2669 2484 
Q 3125 2378 3379 2068 
Q 3634 1759 3634 1313 
Q 3634 634 3220 271 
Q 2806 -91 2034 -91 
Q 1263 -91 848 271 
Q 434 634 434 1313 
Q 434 1759 690 2068 
Q 947 2378 1403 2484 
z
M 1172 3481 
Q 1172 3119 1398 2916 
Q 1625 2713 2034 2713 
Q 2441 2713 2670 2916 
Q 2900 3119 2900 3481 
Q 2900 3844 2670 4047 
Q 2441 4250 2034 4250 
Q 1625 4250 1398 4047 
Q 1172 3844 1172 3481 
z
" transform="scale(0.015625)"/>
      </defs>
      <use xlink:href="#DejaVuSans-30"/>
      <use xlink:href="#DejaVuSans-2e" x="63.623047"/>
      <use xlink:href="#DejaVuSans-38" x="95.410156"/>
     </g>
    </g>
   </g>
   <g id="text_6">
    <!-- $\alpha_{rs}$ over -->
    <g transform="translate(80.056069 225.04975) rotate(-357.979989) scale(0.1 -0.1)">
     <defs>
      <path id="DejaVuSans-Oblique-3b1" d="M 2619 1628 
L 2622 2350 
Q 2625 3088 2069 3091 
Q 1653 3094 1394 2747 
Q 1069 2319 959 1747 
Q 825 1059 994 731 
Q 1169 397 1547 397 
Q 1966 397 2319 1063 
L 2619 1628 
z
M 2166 3578 
Q 3141 3594 3128 2584 
Q 3128 2584 3616 3500 
L 4128 3500 
L 3119 1603 
L 3109 919 
Q 3109 766 3194 638 
Q 3291 488 3391 488 
L 3669 488 
L 3575 0 
L 3228 0 
Q 2934 0 2722 263 
Q 2622 394 2619 669 
Q 2416 334 2066 50 
Q 1900 -81 1453 -78 
Q 722 -72 456 397 
Q 184 884 353 1747 
Q 534 2675 1009 3097 
Q 1544 3569 2166 3578 
z
" transform="scale(0.015625)"/>
      <path id="DejaVuSans-Oblique-72" d="M 2853 2969 
Q 2766 3016 2653 3041 
Q 2541 3066 2413 3066 
Q 1953 3066 1609 2717 
Q 1266 2369 1153 1784 
L 800 0 
L 225 0 
L 909 3500 
L 1484 3500 
L 1375 2956 
Q 1603 3259 1920 3421 
Q 2238 3584 2597 3584 
Q 2691 3584 2781 3573 
Q 2872 3563 2963 3538 
L 2853 2969 
z
" transform="scale(0.015625)"/>
      <path id="DejaVuSans-Oblique-73" d="M 3200 3397 
L 3091 2853 
Q 2863 2978 2609 3040 
Q 2356 3103 2088 3103 
Q 1634 3103 1373 2948 
Q 1113 2794 1113 2528 
Q 1113 2219 1719 2053 
Q 1766 2041 1788 2034 
L 1972 1978 
Q 2547 1819 2739 1644 
Q 2931 1469 2931 1166 
Q 2931 609 2489 259 
Q 2047 -91 1331 -91 
Q 1053 -91 747 -37 
Q 441 16 72 128 
L 184 722 
Q 500 559 806 475 
Q 1113 391 1394 391 
Q 1816 391 2080 572 
Q 2344 753 2344 1031 
Q 2344 1331 1650 1516 
L 1591 1531 
L 1394 1581 
Q 956 1697 753 1886 
Q 550 2075 550 2369 
Q 550 2928 970 3256 
Q 1391 3584 2113 3584 
Q 2397 3584 2667 3537 
Q 2938 3491 3200 3397 
z
" transform="scale(0.015625)"/>
      <path id="DejaVuSans-20" transform="scale(0.015625)"/>
      <path id="DejaVuSans-6f" d="M 1959 3097 
Q 1497 3097 1228 2736 
Q 959 2375 959 1747 
Q 959 1119 1226 758 
Q 1494 397 1959 397 
Q 2419 397 2687 759 
Q 2956 1122 2956 1747 
Q 2956 2369 2687 2733 
Q 2419 3097 1959 3097 
z
M 1959 3584 
Q 2709 3584 3137 3096 
Q 3566 2609 3566 1747 
Q 3566 888 3137 398 
Q 2709 -91 1959 -91 
Q 1206 -91 779 398 
Q 353 888 353 1747 
Q 353 2609 779 3096 
Q 1206 3584 1959 3584 
z
" transform="scale(0.015625)"/>
      <path id="DejaVuSans-76" d="M 191 3500 
L 800 3500 
L 1894 563 
L 2988 3500 
L 3597 3500 
L 2284 0 
L 1503 0 
L 191 3500 
z
" transform="scale(0.015625)"/>
      <path id="DejaVuSans-65" d="M 3597 1894 
L 3597 1613 
L 953 1613 
Q 991 1019 1311 708 
Q 1631 397 2203 397 
Q 2534 397 2845 478 
Q 3156 559 3463 722 
L 3463 178 
Q 3153 47 2828 -22 
Q 2503 -91 2169 -91 
Q 1331 -91 842 396 
Q 353 884 353 1716 
Q 353 2575 817 3079 
Q 1281 3584 2069 3584 
Q 2775 3584 3186 3129 
Q 3597 2675 3597 1894 
z
M 3022 2063 
Q 3016 2534 2758 2815 
Q 2500 3097 2075 3097 
Q 1594 3097 1305 2825 
Q 1016 2553 972 2059 
L 3022 2063 
z
" transform="scale(0.015625)"/>
      <path id="DejaVuSans-72" d="M 2631 2963 
Q 2534 3019 2420 3045 
Q 2306 3072 2169 3072 
Q 1681 3072 1420 2755 
Q 1159 2438 1159 1844 
L 1159 0 
L 581 0 
L 581 3500 
L 1159 3500 
L 1159 2956 
Q 1341 3275 1631 3429 
Q 1922 3584 2338 3584 
Q 2397 3584 2469 3576 
Q 2541 3569 2628 3553 
L 2631 2963 
z
" transform="scale(0.015625)"/>
     </defs>
     <use xlink:href="#DejaVuSans-Oblique-3b1" transform="translate(0 0.84375)"/>
     <use xlink:href="#DejaVuSans-Oblique-72" transform="translate(65.917969 -15.5625) scale(0.7)"/>
     <use xlink:href="#DejaVuSans-Oblique-73" transform="translate(94.697266 -15.5625) scale(0.7)"/>
     <use xlink:href="#DejaVuSans-20" transform="translate(133.901367 0.84375)"/>
     <use xlink:href="#DejaVuSans-6f" transform="translate(165.688477 0.84375)"/>
     <use xlink:href="#DejaVuSans-76" transform="translate(226.870117 0.84375)"/>
     <use xlink:href="#DejaVuSans-65" transform="translate(286.049805 0.84375)"/>
     <use xlink:href="#DejaVuSans-72" transform="translate(347.573242 0.84375)"/>
    </g>
   </g>
  </g>
  <g id="axis3d_2">
   <g id="line2d_7">
    <path d="M 172.722252 141.5369 
L 168.668937 189.499627 
" style="fill: none; stroke: #000000; stroke-width: 0.8; stroke-linecap: square"/>
   </g>
   <g id="xtick_6">
    <g id="line2d_8">
     <path d="M 168.364785 180.725362 
L 171.493129 180.833593 
" style="fill: none; stroke: #000000; stroke-width: 0.8; stroke-linecap: square"/>
    </g>
    <g id="text_7">
     <!-- 0.85 -->
     <g transform="translate(172.638043 198.909218) scale(0.1 -0.1)">
      <defs>
       <path id="DejaVuSans-35" d="M 691 4666 
L 3169 4666 
L 3169 4134 
L 1269 4134 
L 1269 2991 
Q 1406 3038 1543 3061 
Q 1681 3084 1819 3084 
Q 2600 3084 3056 2656 
Q 3513 2228 3513 1497 
Q 3513 744 3044 326 
Q 2575 -91 1722 -91 
Q 1428 -91 1123 -41 
Q 819 9 494 109 
L 494 744 
Q 775 591 1075 516 
Q 1375 441 1709 441 
Q 2250 441 2565 725 
Q 2881 1009 2881 1497 
Q 2881 1984 2565 2268 
Q 2250 2553 1709 2553 
Q 1456 2553 1204 2497 
Q 953 2441 691 2322 
L 691 4666 
z
" transform="scale(0.015625)"/>
      </defs>
      <use xlink:href="#DejaVuSans-30"/>
      <use xlink:href="#DejaVuSans-2e" x="63.623047"/>
      <use xlink:href="#DejaVuSans-38" x="95.410156"/>
      <use xlink:href="#DejaVuSans-35" x="159.033203"/>
     </g>
    </g>
   </g>
   <g id="xtick_7">
    <g id="line2d_9">
     <path d="M 169.480587 167.875394 
L 172.519851 167.977531 
" style="fill: none; stroke: #000000; stroke-width: 0.8; stroke-linecap: square"/>
    </g>
    <g id="text_8">
     <!-- 0.90 -->
     <g transform="translate(173.31246 185.786523) scale(0.1 -0.1)">
      <defs>
       <path id="DejaVuSans-39" d="M 703 97 
L 703 672 
Q 941 559 1184 500 
Q 1428 441 1663 441 
Q 2288 441 2617 861 
Q 2947 1281 2994 2138 
Q 2813 1869 2534 1725 
Q 2256 1581 1919 1581 
Q 1219 1581 811 2004 
Q 403 2428 403 3163 
Q 403 3881 828 4315 
Q 1253 4750 1959 4750 
Q 2769 4750 3195 4129 
Q 3622 3509 3622 2328 
Q 3622 1225 3098 567 
Q 2575 -91 1691 -91 
Q 1453 -91 1209 -44 
Q 966 3 703 97 
z
M 1959 2075 
Q 2384 2075 2632 2365 
Q 2881 2656 2881 3163 
Q 2881 3666 2632 3958 
Q 2384 4250 1959 4250 
Q 1534 4250 1286 3958 
Q 1038 3666 1038 3163 
Q 1038 2656 1286 2365 
Q 1534 2075 1959 2075 
z
" transform="scale(0.015625)"/>
      </defs>
      <use xlink:href="#DejaVuSans-30"/>
      <use xlink:href="#DejaVuSans-2e" x="63.623047"/>
      <use xlink:href="#DejaVuSans-39" x="95.410156"/>
      <use xlink:href="#DejaVuSans-30" x="159.033203"/>
     </g>
    </g>
   </g>
   <g id="xtick_8">
    <g id="line2d_10">
     <path d="M 170.534442 155.73883 
L 173.489559 155.835376 
" style="fill: none; stroke: #000000; stroke-width: 0.8; stroke-linecap: square"/>
    </g>
    <g id="text_9">
     <!-- 0.95 -->
     <g transform="translate(173.949518 173.390785) scale(0.1 -0.1)">
      <use xlink:href="#DejaVuSans-30"/>
      <use xlink:href="#DejaVuSans-2e" x="63.623047"/>
      <use xlink:href="#DejaVuSans-39" x="95.410156"/>
      <use xlink:href="#DejaVuSans-35" x="159.033203"/>
     </g>
    </g>
   </g>
   <g id="xtick_9">
    <g id="line2d_11">
     <path d="M 171.531369 144.257866 
L 174.406873 144.349266 
" style="fill: none; stroke: #000000; stroke-width: 0.8; stroke-linecap: square"/>
    </g>
    <g id="text_10">
     <!-- 1.00 -->
     <g transform="translate(174.552235 161.663227) scale(0.1 -0.1)">
      <defs>
       <path id="DejaVuSans-31" d="M 794 531 
L 1825 531 
L 1825 4091 
L 703 3866 
L 703 4441 
L 1819 4666 
L 2450 4666 
L 2450 531 
L 3481 531 
L 3481 0 
L 794 0 
L 794 531 
z
" transform="scale(0.015625)"/>
      </defs>
      <use xlink:href="#DejaVuSans-31"/>
      <use xlink:href="#DejaVuSans-2e" x="63.623047"/>
      <use xlink:href="#DejaVuSans-30" x="95.410156"/>
      <use xlink:href="#DejaVuSans-30" x="159.033203"/>
     </g>
    </g>
   </g>
   <g id="text_11">
    <!-- $\alpha_{rs}$ under -->
    <g transform="translate(201.614629 209.41097) rotate(-85.169431) scale(0.1 -0.1)">
     <defs>
      <path id="DejaVuSans-75" d="M 544 1381 
L 544 3500 
L 1119 3500 
L 1119 1403 
Q 1119 906 1312 657 
Q 1506 409 1894 409 
Q 2359 409 2629 706 
Q 2900 1003 2900 1516 
L 2900 3500 
L 3475 3500 
L 3475 0 
L 2900 0 
L 2900 538 
Q 2691 219 2414 64 
Q 2138 -91 1772 -91 
Q 1169 -91 856 284 
Q 544 659 544 1381 
z
M 1991 3584 
L 1991 3584 
z
" transform="scale(0.015625)"/>
      <path id="DejaVuSans-6e" d="M 3513 2113 
L 3513 0 
L 2938 0 
L 2938 2094 
Q 2938 2591 2744 2837 
Q 2550 3084 2163 3084 
Q 1697 3084 1428 2787 
Q 1159 2491 1159 1978 
L 1159 0 
L 581 0 
L 581 3500 
L 1159 3500 
L 1159 2956 
Q 1366 3272 1645 3428 
Q 1925 3584 2291 3584 
Q 2894 3584 3203 3211 
Q 3513 2838 3513 2113 
z
" transform="scale(0.015625)"/>
      <path id="DejaVuSans-64" d="M 2906 2969 
L 2906 4863 
L 3481 4863 
L 3481 0 
L 2906 0 
L 2906 525 
Q 2725 213 2448 61 
Q 2172 -91 1784 -91 
Q 1150 -91 751 415 
Q 353 922 353 1747 
Q 353 2572 751 3078 
Q 1150 3584 1784 3584 
Q 2172 3584 2448 3432 
Q 2725 3281 2906 2969 
z
M 947 1747 
Q 947 1113 1208 752 
Q 1469 391 1925 391 
Q 2381 391 2643 752 
Q 2906 1113 2906 1747 
Q 2906 2381 2643 2742 
Q 2381 3103 1925 3103 
Q 1469 3103 1208 2742 
Q 947 2381 947 1747 
z
" transform="scale(0.015625)"/>
     </defs>
     <use xlink:href="#DejaVuSans-Oblique-3b1" transform="translate(0 0.015625)"/>
     <use xlink:href="#DejaVuSans-Oblique-72" transform="translate(65.917969 -16.390625) scale(0.7)"/>
     <use xlink:href="#DejaVuSans-Oblique-73" transform="translate(94.697266 -16.390625) scale(0.7)"/>
     <use xlink:href="#DejaVuSans-20" transform="translate(133.901367 0.015625)"/>
     <use xlink:href="#DejaVuSans-75" transform="translate(165.688477 0.015625)"/>
     <use xlink:href="#DejaVuSans-6e" transform="translate(229.067383 0.015625)"/>
     <use xlink:href="#DejaVuSans-64" transform="translate(292.446289 0.015625)"/>
     <use xlink:href="#DejaVuSans-65" transform="translate(355.922852 0.015625)"/>
     <use xlink:href="#DejaVuSans-72" transform="translate(417.446289 0.015625)"/>
    </g>
   </g>
  </g>
  <g id="axis3d_3">
   <g id="line2d_12">
    <path d="M 172.722252 141.5369 
L 174.621018 55.979021 
" style="fill: none; stroke: #000000; stroke-width: 0.8; stroke-linecap: square"/>
   </g>
   <g id="xtick_10">
    <g id="line2d_13">
     <path d="M 171.806609 139.84385 
L 174.664681 139.933725 
" style="fill: none; stroke: #000000; stroke-width: 0.8; stroke-linecap: square"/>
    </g>
    <g id="text_12">
     <!-- 0.0 -->
     <g transform="translate(178.419033 143.139926) scale(0.1 -0.1)">
      <use xlink:href="#DejaVuSans-30"/>
      <use xlink:href="#DejaVuSans-2e" x="63.623047"/>
      <use xlink:href="#DejaVuSans-30" x="95.410156"/>
     </g>
    </g>
   </g>
   <g id="xtick_11">
    <g id="line2d_14">
     <path d="M 172.157801 123.781598 
L 175.031767 123.868422 
" style="fill: none; stroke: #000000; stroke-width: 0.8; stroke-linecap: square"/>
    </g>
    <g id="text_13">
     <!-- 0.2 -->
     <g transform="translate(178.84624 127.223934) scale(0.1 -0.1)">
      <use xlink:href="#DejaVuSans-30"/>
      <use xlink:href="#DejaVuSans-2e" x="63.623047"/>
      <use xlink:href="#DejaVuSans-32" x="95.410156"/>
     </g>
    </g>
   </g>
   <g id="xtick_12">
    <g id="line2d_15">
     <path d="M 172.512901 107.540618 
L 175.402938 107.624319 
" style="fill: none; stroke: #000000; stroke-width: 0.8; stroke-linecap: square"/>
    </g>
    <g id="text_14">
     <!-- 0.4 -->
     <g transform="translate(179.278149 111.132725) scale(0.1 -0.1)">
      <use xlink:href="#DejaVuSans-30"/>
      <use xlink:href="#DejaVuSans-2e" x="63.623047"/>
      <use xlink:href="#DejaVuSans-34" x="95.410156"/>
     </g>
    </g>
   </g>
   <g id="xtick_13">
    <g id="line2d_16">
     <path d="M 172.871974 91.117912 
L 175.778264 91.198413 
" style="fill: none; stroke: #000000; stroke-width: 0.8; stroke-linecap: square"/>
    </g>
    <g id="text_15">
     <!-- 0.6 -->
     <g transform="translate(179.71484 94.86339) scale(0.1 -0.1)">
      <use xlink:href="#DejaVuSans-30"/>
      <use xlink:href="#DejaVuSans-2e" x="63.623047"/>
      <use xlink:href="#DejaVuSans-36" x="95.410156"/>
     </g>
    </g>
   </g>
   <g id="xtick_14">
    <g id="line2d_17">
     <path d="M 173.235087 74.510412 
L 176.157814 74.587636 
" style="fill: none; stroke: #000000; stroke-width: 0.8; stroke-linecap: square"/>
    </g>
    <g id="text_16">
     <!-- 0.8 -->
     <g transform="translate(180.156392 78.412954) scale(0.1 -0.1)">
      <use xlink:href="#DejaVuSans-30"/>
      <use xlink:href="#DejaVuSans-2e" x="63.623047"/>
      <use xlink:href="#DejaVuSans-38" x="95.410156"/>
     </g>
    </g>
   </g>
   <g id="xtick_15">
    <g id="line2d_18">
     <path d="M 173.60231 57.714981 
L 176.54166 57.788849 
" style="fill: none; stroke: #000000; stroke-width: 0.8; stroke-linecap: square"/>
    </g>
    <g id="text_17">
     <!-- 1.0 -->
     <g transform="translate(180.602886 61.778376) scale(0.1 -0.1)">
      <use xlink:href="#DejaVuSans-31"/>
      <use xlink:href="#DejaVuSans-2e" x="63.623047"/>
      <use xlink:href="#DejaVuSans-30" x="95.410156"/>
     </g>
    </g>
   </g>
  </g>
  <g id="axes_1">
   <g id="Poly3DCollection_1">
    <path d="M 56.994192 100.474995 
L 83.778373 100.278235 
L 86.662842 93.785901 
L 60.508017 93.853413 
z
" clip-path="url(#p3da5350d73)" style="fill: #0638f8"/>
    <path d="M 83.778373 100.278235 
L 110.692417 99.25163 
L 112.940189 92.516014 
L 86.662842 93.785901 
z
" clip-path="url(#p3da5350d73)" style="fill: #0638f8"/>
    <path d="M 110.692417 99.25163 
L 137.759527 97.453687 
L 139.369031 90.437758 
L 112.940189 92.516014 
z
" clip-path="url(#p3da5350d73)" style="fill: #1343f9"/>
    <path d="M 137.759527 97.453687 
L 164.95607 97.278649 
L 165.920662 90.191363 
L 139.369031 90.437758 
z
" clip-path="url(#p3da5350d73)" style="fill: #234ffb"/>
    <path d="M 53.30215 107.28369 
L 80.750329 107.220047 
L 83.778373 100.278235 
L 56.994192 100.474995 
z
" clip-path="url(#p3da5350d73)" style="fill: #0638f8"/>
    <path d="M 80.750329 107.220047 
L 108.331955 106.25173 
L 110.692417 99.25163 
L 83.778373 100.278235 
z
" clip-path="url(#p3da5350d73)" style="fill: #1141f9"/>
    <path d="M 108.331955 106.25173 
L 136.07006 104.755716 
L 137.759527 97.453687 
L 110.692417 99.25163 
z
" clip-path="url(#p3da5350d73)" style="fill: #224efb"/>
    <path d="M 136.07006 104.755716 
L 163.943701 104.690017 
L 164.95607 97.278649 
L 137.759527 97.453687 
z
" clip-path="url(#p3da5350d73)" style="fill: #305afc"/>
    <path d="M 49.426925 114.757982 
L 77.568037 114.644929 
L 80.750329 107.220047 
L 53.30215 107.28369 
z
" clip-path="url(#p3da5350d73)" style="fill: #1545fa"/>
    <path d="M 77.568037 114.644929 
L 105.850307 113.991031 
L 108.331955 106.25173 
L 80.750329 107.220047 
z
" clip-path="url(#p3da5350d73)" style="fill: #204efb"/>
    <path d="M 105.850307 113.991031 
L 134.290548 112.795465 
L 136.07006 104.755716 
L 108.331955 106.25173 
z
" clip-path="url(#p3da5350d73)" style="fill: #305afc"/>
    <path d="M 134.290548 112.795465 
L 162.871041 112.923129 
L 163.943701 104.690017 
L 136.07006 104.755716 
z
" clip-path="url(#p3da5350d73)" style="fill: #3c64fd"/>
    <path d="M 45.33142 121.836256 
L 74.213395 122.046778 
L 77.568037 114.644929 
L 49.426925 114.757982 
z
" clip-path="url(#p3da5350d73)" style="fill: #2854fb"/>
    <path d="M 74.213395 122.046778 
L 103.23729 121.596776 
L 105.850307 113.991031 
L 77.568037 114.644929 
z
" clip-path="url(#p3da5350d73)" style="fill: #315bfc"/>
    <path d="M 103.23729 121.596776 
L 132.420666 120.889693 
L 134.290548 112.795465 
L 105.850307 113.991031 
z
" clip-path="url(#p3da5350d73)" style="fill: #3d65fe"/>
    <path d="M 132.420666 120.889693 
L 161.749994 121.155256 
L 162.871041 112.923129 
L 134.290548 112.795465 
z
" clip-path="url(#p3da5350d73)" style="fill: #476dfe"/>
   </g>
   <g id="text_18">
    <!-- CatBoost - accuracy -->
    <g transform="translate(45.465276 16.318125) scale(0.12 -0.12)">
     <defs>
      <path id="DejaVuSans-43" d="M 4122 4306 
L 4122 3641 
Q 3803 3938 3442 4084 
Q 3081 4231 2675 4231 
Q 1875 4231 1450 3742 
Q 1025 3253 1025 2328 
Q 1025 1406 1450 917 
Q 1875 428 2675 428 
Q 3081 428 3442 575 
Q 3803 722 4122 1019 
L 4122 359 
Q 3791 134 3420 21 
Q 3050 -91 2638 -91 
Q 1578 -91 968 557 
Q 359 1206 359 2328 
Q 359 3453 968 4101 
Q 1578 4750 2638 4750 
Q 3056 4750 3426 4639 
Q 3797 4528 4122 4306 
z
" transform="scale(0.015625)"/>
      <path id="DejaVuSans-61" d="M 2194 1759 
Q 1497 1759 1228 1600 
Q 959 1441 959 1056 
Q 959 750 1161 570 
Q 1363 391 1709 391 
Q 2188 391 2477 730 
Q 2766 1069 2766 1631 
L 2766 1759 
L 2194 1759 
z
M 3341 1997 
L 3341 0 
L 2766 0 
L 2766 531 
Q 2569 213 2275 61 
Q 1981 -91 1556 -91 
Q 1019 -91 701 211 
Q 384 513 384 1019 
Q 384 1609 779 1909 
Q 1175 2209 1959 2209 
L 2766 2209 
L 2766 2266 
Q 2766 2663 2505 2880 
Q 2244 3097 1772 3097 
Q 1472 3097 1187 3025 
Q 903 2953 641 2809 
L 641 3341 
Q 956 3463 1253 3523 
Q 1550 3584 1831 3584 
Q 2591 3584 2966 3190 
Q 3341 2797 3341 1997 
z
" transform="scale(0.015625)"/>
      <path id="DejaVuSans-74" d="M 1172 4494 
L 1172 3500 
L 2356 3500 
L 2356 3053 
L 1172 3053 
L 1172 1153 
Q 1172 725 1289 603 
Q 1406 481 1766 481 
L 2356 481 
L 2356 0 
L 1766 0 
Q 1100 0 847 248 
Q 594 497 594 1153 
L 594 3053 
L 172 3053 
L 172 3500 
L 594 3500 
L 594 4494 
L 1172 4494 
z
" transform="scale(0.015625)"/>
      <path id="DejaVuSans-42" d="M 1259 2228 
L 1259 519 
L 2272 519 
Q 2781 519 3026 730 
Q 3272 941 3272 1375 
Q 3272 1813 3026 2020 
Q 2781 2228 2272 2228 
L 1259 2228 
z
M 1259 4147 
L 1259 2741 
L 2194 2741 
Q 2656 2741 2882 2914 
Q 3109 3088 3109 3444 
Q 3109 3797 2882 3972 
Q 2656 4147 2194 4147 
L 1259 4147 
z
M 628 4666 
L 2241 4666 
Q 2963 4666 3353 4366 
Q 3744 4066 3744 3513 
Q 3744 3084 3544 2831 
Q 3344 2578 2956 2516 
Q 3422 2416 3680 2098 
Q 3938 1781 3938 1306 
Q 3938 681 3513 340 
Q 3088 0 2303 0 
L 628 0 
L 628 4666 
z
" transform="scale(0.015625)"/>
      <path id="DejaVuSans-73" d="M 2834 3397 
L 2834 2853 
Q 2591 2978 2328 3040 
Q 2066 3103 1784 3103 
Q 1356 3103 1142 2972 
Q 928 2841 928 2578 
Q 928 2378 1081 2264 
Q 1234 2150 1697 2047 
L 1894 2003 
Q 2506 1872 2764 1633 
Q 3022 1394 3022 966 
Q 3022 478 2636 193 
Q 2250 -91 1575 -91 
Q 1294 -91 989 -36 
Q 684 19 347 128 
L 347 722 
Q 666 556 975 473 
Q 1284 391 1588 391 
Q 1994 391 2212 530 
Q 2431 669 2431 922 
Q 2431 1156 2273 1281 
Q 2116 1406 1581 1522 
L 1381 1569 
Q 847 1681 609 1914 
Q 372 2147 372 2553 
Q 372 3047 722 3315 
Q 1072 3584 1716 3584 
Q 2034 3584 2315 3537 
Q 2597 3491 2834 3397 
z
" transform="scale(0.015625)"/>
      <path id="DejaVuSans-2d" d="M 313 2009 
L 1997 2009 
L 1997 1497 
L 313 1497 
L 313 2009 
z
" transform="scale(0.015625)"/>
      <path id="DejaVuSans-63" d="M 3122 3366 
L 3122 2828 
Q 2878 2963 2633 3030 
Q 2388 3097 2138 3097 
Q 1578 3097 1268 2742 
Q 959 2388 959 1747 
Q 959 1106 1268 751 
Q 1578 397 2138 397 
Q 2388 397 2633 464 
Q 2878 531 3122 666 
L 3122 134 
Q 2881 22 2623 -34 
Q 2366 -91 2075 -91 
Q 1284 -91 818 406 
Q 353 903 353 1747 
Q 353 2603 823 3093 
Q 1294 3584 2113 3584 
Q 2378 3584 2631 3529 
Q 2884 3475 3122 3366 
z
" transform="scale(0.015625)"/>
      <path id="DejaVuSans-79" d="M 2059 -325 
Q 1816 -950 1584 -1140 
Q 1353 -1331 966 -1331 
L 506 -1331 
L 506 -850 
L 844 -850 
Q 1081 -850 1212 -737 
Q 1344 -625 1503 -206 
L 1606 56 
L 191 3500 
L 800 3500 
L 1894 763 
L 2988 3500 
L 3597 3500 
L 2059 -325 
z
" transform="scale(0.015625)"/>
     </defs>
     <use xlink:href="#DejaVuSans-43"/>
     <use xlink:href="#DejaVuSans-61" x="69.824219"/>
     <use xlink:href="#DejaVuSans-74" x="131.103516"/>
     <use xlink:href="#DejaVuSans-42" x="170.3125"/>
     <use xlink:href="#DejaVuSans-6f" x="238.916016"/>
     <use xlink:href="#DejaVuSans-6f" x="300.097656"/>
     <use xlink:href="#DejaVuSans-73" x="361.279297"/>
     <use xlink:href="#DejaVuSans-74" x="413.378906"/>
     <use xlink:href="#DejaVuSans-20" x="452.587891"/>
     <use xlink:href="#DejaVuSans-2d" x="484.375"/>
     <use xlink:href="#DejaVuSans-20" x="520.458984"/>
     <use xlink:href="#DejaVuSans-61" x="552.246094"/>
     <use xlink:href="#DejaVuSans-63" x="613.525391"/>
     <use xlink:href="#DejaVuSans-63" x="668.505859"/>
     <use xlink:href="#DejaVuSans-75" x="723.486328"/>
     <use xlink:href="#DejaVuSans-72" x="786.865234"/>
     <use xlink:href="#DejaVuSans-61" x="827.978516"/>
     <use xlink:href="#DejaVuSans-63" x="889.257812"/>
     <use xlink:href="#DejaVuSans-79" x="944.238281"/>
    </g>
   </g>
  </g>
  <g id="patch_6">
   <path d="M 243.529412 219.259301 
L 440.470588 219.259301 
L 440.470588 22.318125 
L 243.529412 22.318125 
z
" style="fill: #ffffff"/>
  </g>
  <g id="pane3d_4">
   <g id="patch_7">
    <path d="M 273.481504 184.860969 
L 291.121136 137.813392 
L 289.557046 52.94475 
L 271.153962 91.403201 
" style="fill: #f2f2f2; opacity: 0.5; stroke: #f2f2f2; stroke-linejoin: miter"/>
   </g>
  </g>
  <g id="pane3d_5">
   <g id="patch_8">
    <path d="M 291.121136 137.813392 
L 409.051663 141.5369 
L 410.950429 55.979021 
L 289.557046 52.94475 
" style="fill: #e6e6e6; opacity: 0.5; stroke: #e6e6e6; stroke-linejoin: miter"/>
   </g>
  </g>
  <g id="pane3d_6">
   <g id="patch_9">
    <path d="M 273.481504 184.860969 
L 404.998349 189.499627 
L 409.051663 141.5369 
L 291.121136 137.813392 
" style="fill: #ececec; opacity: 0.5; stroke: #ececec; stroke-linejoin: miter"/>
   </g>
  </g>
  <g id="grid3d_4">
   <g id="Line3DCollection_4">
    <path d="M 281.771481 185.15336 
L 298.562086 138.048331 
L 297.214572 53.136153 
" style="fill: none; stroke: #b0b0b0; stroke-width: 0.8"/>
    <path d="M 309.184568 186.120232 
L 323.16057 138.824997 
L 322.530853 53.768942 
" style="fill: none; stroke: #b0b0b0; stroke-width: 0.8"/>
    <path d="M 336.714539 187.091226 
L 347.853025 139.60463 
L 347.946686 54.40422 
" style="fill: none; stroke: #b0b0b0; stroke-width: 0.8"/>
    <path d="M 364.362145 188.06637 
L 372.639991 140.387248 
L 373.462659 55.042001 
" style="fill: none; stroke: #b0b0b0; stroke-width: 0.8"/>
    <path d="M 392.12814 189.045689 
L 397.522012 141.172866 
L 399.079365 55.6823 
" style="fill: none; stroke: #b0b0b0; stroke-width: 0.8"/>
   </g>
  </g>
  <g id="grid3d_5">
   <g id="Line3DCollection_5">
    <path d="M 274.513145 84.383237 
L 276.69244 176.296913 
L 405.736811 180.761433 
" style="fill: none; stroke: #b0b0b0; stroke-width: 0.8"/>
    <path d="M 279.44861 74.069187 
L 281.417284 163.695038 
L 406.822929 167.909434 
" style="fill: none; stroke: #b0b0b0; stroke-width: 0.8"/>
    <path d="M 284.104405 64.339587 
L 285.882252 151.78629 
L 407.848744 155.771007 
" style="fill: none; stroke: #b0b0b0; stroke-width: 0.8"/>
    <path d="M 288.503646 55.146128 
L 290.108212 140.515013 
L 408.819141 144.288329 
" style="fill: none; stroke: #b0b0b0; stroke-width: 0.8"/>
   </g>
  </g>
  <g id="grid3d_6">
   <g id="Line3DCollection_6">
    <path d="M 409.088572 139.873804 
L 291.090725 136.163261 
L 273.436398 183.049852 
" style="fill: none; stroke: #b0b0b0; stroke-width: 0.8"/>
    <path d="M 409.44506 123.810535 
L 290.79701 120.226102 
L 273.00046 165.545624 
" style="fill: none; stroke: #b0b0b0; stroke-width: 0.8"/>
    <path d="M 409.805516 107.568514 
L 290.500057 104.11322 
L 272.559152 147.825804 
" style="fill: none; stroke: #b0b0b0; stroke-width: 0.8"/>
    <path d="M 410.170005 91.144742 
L 290.199812 87.821693 
L 272.112376 129.886385 
" style="fill: none; stroke: #b0b0b0; stroke-width: 0.8"/>
    <path d="M 410.538595 74.536149 
L 289.896219 71.348535 
L 271.660028 111.723259 
" style="fill: none; stroke: #b0b0b0; stroke-width: 0.8"/>
    <path d="M 410.911357 57.7396 
L 289.589223 54.690689 
L 271.202004 93.332215 
" style="fill: none; stroke: #b0b0b0; stroke-width: 0.8"/>
   </g>
  </g>
  <g id="axis3d_4">
   <g id="line2d_19">
    <path d="M 273.481504 184.860969 
L 404.998349 189.499627 
" style="fill: none; stroke: #000000; stroke-width: 0.8; stroke-linecap: square"/>
   </g>
   <g id="xtick_16">
    <g id="line2d_20">
     <path d="M 281.921199 184.733335 
L 281.471212 185.995746 
" style="fill: none; stroke: #000000; stroke-width: 0.8; stroke-linecap: square"/>
    </g>
    <g id="text_19">
     <!-- 0.0 -->
     <g transform="translate(271.925351 208.947746) scale(0.1 -0.1)">
      <use xlink:href="#DejaVuSans-30"/>
      <use xlink:href="#DejaVuSans-2e" x="63.623047"/>
      <use xlink:href="#DejaVuSans-30" x="95.410156"/>
     </g>
    </g>
   </g>
   <g id="xtick_17">
    <g id="line2d_21">
     <path d="M 309.309216 185.698419 
L 308.934577 186.966209 
" style="fill: none; stroke: #000000; stroke-width: 0.8; stroke-linecap: square"/>
    </g>
    <g id="text_20">
     <!-- 0.2 -->
     <g transform="translate(299.595372 209.958606) scale(0.1 -0.1)">
      <use xlink:href="#DejaVuSans-30"/>
      <use xlink:href="#DejaVuSans-2e" x="63.623047"/>
      <use xlink:href="#DejaVuSans-32" x="95.410156"/>
     </g>
    </g>
   </g>
   <g id="xtick_18">
    <g id="line2d_22">
     <path d="M 336.813902 186.667614 
L 336.515259 187.940818 
" style="fill: none; stroke: #000000; stroke-width: 0.8; stroke-linecap: square"/>
    </g>
    <g id="text_21">
     <!-- 0.4 -->
     <g transform="translate(327.3845 210.973818) scale(0.1 -0.1)">
      <use xlink:href="#DejaVuSans-30"/>
      <use xlink:href="#DejaVuSans-2e" x="63.623047"/>
      <use xlink:href="#DejaVuSans-34" x="95.410156"/>
     </g>
    </g>
   </g>
   <g id="xtick_19">
    <g id="line2d_23">
     <path d="M 364.436005 187.640946 
L 364.214011 188.919599 
" style="fill: none; stroke: #000000; stroke-width: 0.8; stroke-linecap: square"/>
    </g>
    <g id="text_22">
     <!-- 0.6 -->
     <g transform="translate(355.293504 211.99341) scale(0.1 -0.1)">
      <use xlink:href="#DejaVuSans-30"/>
      <use xlink:href="#DejaVuSans-2e" x="63.623047"/>
      <use xlink:href="#DejaVuSans-36" x="95.410156"/>
     </g>
    </g>
   </g>
   <g id="xtick_20">
    <g id="line2d_24">
     <path d="M 392.176278 188.618442 
L 392.031594 189.902579 
" style="fill: none; stroke: #000000; stroke-width: 0.8; stroke-linecap: square"/>
    </g>
    <g id="text_23">
     <!-- 0.8 -->
     <g transform="translate(383.323162 213.017409) scale(0.1 -0.1)">
      <use xlink:href="#DejaVuSans-30"/>
      <use xlink:href="#DejaVuSans-2e" x="63.623047"/>
      <use xlink:href="#DejaVuSans-38" x="95.410156"/>
     </g>
    </g>
   </g>
   <g id="text_24">
    <!-- $\alpha_{rs}$ over -->
    <g transform="translate(316.38548 225.04975) rotate(-357.979989) scale(0.1 -0.1)">
     <use xlink:href="#DejaVuSans-Oblique-3b1" transform="translate(0 0.84375)"/>
     <use xlink:href="#DejaVuSans-Oblique-72" transform="translate(65.917969 -15.5625) scale(0.7)"/>
     <use xlink:href="#DejaVuSans-Oblique-73" transform="translate(94.697266 -15.5625) scale(0.7)"/>
     <use xlink:href="#DejaVuSans-20" transform="translate(133.901367 0.84375)"/>
     <use xlink:href="#DejaVuSans-6f" transform="translate(165.688477 0.84375)"/>
     <use xlink:href="#DejaVuSans-76" transform="translate(226.870117 0.84375)"/>
     <use xlink:href="#DejaVuSans-65" transform="translate(286.049805 0.84375)"/>
     <use xlink:href="#DejaVuSans-72" transform="translate(347.573242 0.84375)"/>
    </g>
   </g>
  </g>
  <g id="axis3d_5">
   <g id="line2d_25">
    <path d="M 409.051663 141.5369 
L 404.998349 189.499627 
" style="fill: none; stroke: #000000; stroke-width: 0.8; stroke-linecap: square"/>
   </g>
   <g id="xtick_21">
    <g id="line2d_26">
     <path d="M 404.694197 180.725362 
L 407.82254 180.833593 
" style="fill: none; stroke: #000000; stroke-width: 0.8; stroke-linecap: square"/>
    </g>
    <g id="text_25">
     <!-- 0.85 -->
     <g transform="translate(408.967454 198.909218) scale(0.1 -0.1)">
      <use xlink:href="#DejaVuSans-30"/>
      <use xlink:href="#DejaVuSans-2e" x="63.623047"/>
      <use xlink:href="#DejaVuSans-38" x="95.410156"/>
      <use xlink:href="#DejaVuSans-35" x="159.033203"/>
     </g>
    </g>
   </g>
   <g id="xtick_22">
    <g id="line2d_27">
     <path d="M 405.809999 167.875394 
L 408.849263 167.977531 
" style="fill: none; stroke: #000000; stroke-width: 0.8; stroke-linecap: square"/>
    </g>
    <g id="text_26">
     <!-- 0.90 -->
     <g transform="translate(409.641872 185.786523) scale(0.1 -0.1)">
      <use xlink:href="#DejaVuSans-30"/>
      <use xlink:href="#DejaVuSans-2e" x="63.623047"/>
      <use xlink:href="#DejaVuSans-39" x="95.410156"/>
      <use xlink:href="#DejaVuSans-30" x="159.033203"/>
     </g>
    </g>
   </g>
   <g id="xtick_23">
    <g id="line2d_28">
     <path d="M 406.863854 155.73883 
L 409.818971 155.835376 
" style="fill: none; stroke: #000000; stroke-width: 0.8; stroke-linecap: square"/>
    </g>
    <g id="text_27">
     <!-- 0.95 -->
     <g transform="translate(410.278929 173.390785) scale(0.1 -0.1)">
      <use xlink:href="#DejaVuSans-30"/>
      <use xlink:href="#DejaVuSans-2e" x="63.623047"/>
      <use xlink:href="#DejaVuSans-39" x="95.410156"/>
      <use xlink:href="#DejaVuSans-35" x="159.033203"/>
     </g>
    </g>
   </g>
   <g id="xtick_24">
    <g id="line2d_29">
     <path d="M 407.860781 144.257866 
L 410.736285 144.349266 
" style="fill: none; stroke: #000000; stroke-width: 0.8; stroke-linecap: square"/>
    </g>
    <g id="text_28">
     <!-- 1.00 -->
     <g transform="translate(410.881647 161.663227) scale(0.1 -0.1)">
      <use xlink:href="#DejaVuSans-31"/>
      <use xlink:href="#DejaVuSans-2e" x="63.623047"/>
      <use xlink:href="#DejaVuSans-30" x="95.410156"/>
      <use xlink:href="#DejaVuSans-30" x="159.033203"/>
     </g>
    </g>
   </g>
   <g id="text_29">
    <!-- $\alpha_{rs}$ under -->
    <g transform="translate(437.944041 209.41097) rotate(-85.169431) scale(0.1 -0.1)">
     <use xlink:href="#DejaVuSans-Oblique-3b1" transform="translate(0 0.015625)"/>
     <use xlink:href="#DejaVuSans-Oblique-72" transform="translate(65.917969 -16.390625) scale(0.7)"/>
     <use xlink:href="#DejaVuSans-Oblique-73" transform="translate(94.697266 -16.390625) scale(0.7)"/>
     <use xlink:href="#DejaVuSans-20" transform="translate(133.901367 0.015625)"/>
     <use xlink:href="#DejaVuSans-75" transform="translate(165.688477 0.015625)"/>
     <use xlink:href="#DejaVuSans-6e" transform="translate(229.067383 0.015625)"/>
     <use xlink:href="#DejaVuSans-64" transform="translate(292.446289 0.015625)"/>
     <use xlink:href="#DejaVuSans-65" transform="translate(355.922852 0.015625)"/>
     <use xlink:href="#DejaVuSans-72" transform="translate(417.446289 0.015625)"/>
    </g>
   </g>
  </g>
  <g id="axis3d_6">
   <g id="line2d_30">
    <path d="M 409.051663 141.5369 
L 410.950429 55.979021 
" style="fill: none; stroke: #000000; stroke-width: 0.8; stroke-linecap: square"/>
   </g>
   <g id="xtick_25">
    <g id="line2d_31">
     <path d="M 408.136021 139.84385 
L 410.994092 139.933725 
" style="fill: none; stroke: #000000; stroke-width: 0.8; stroke-linecap: square"/>
    </g>
    <g id="text_30">
     <!-- 0.0 -->
     <g transform="translate(414.748445 143.139926) scale(0.1 -0.1)">
      <use xlink:href="#DejaVuSans-30"/>
      <use xlink:href="#DejaVuSans-2e" x="63.623047"/>
      <use xlink:href="#DejaVuSans-30" x="95.410156"/>
     </g>
    </g>
   </g>
   <g id="xtick_26">
    <g id="line2d_32">
     <path d="M 408.487213 123.781598 
L 411.361179 123.868422 
" style="fill: none; stroke: #000000; stroke-width: 0.8; stroke-linecap: square"/>
    </g>
    <g id="text_31">
     <!-- 0.2 -->
     <g transform="translate(415.175651 127.223934) scale(0.1 -0.1)">
      <use xlink:href="#DejaVuSans-30"/>
      <use xlink:href="#DejaVuSans-2e" x="63.623047"/>
      <use xlink:href="#DejaVuSans-32" x="95.410156"/>
     </g>
    </g>
   </g>
   <g id="xtick_27">
    <g id="line2d_33">
     <path d="M 408.842313 107.540618 
L 411.73235 107.624319 
" style="fill: none; stroke: #000000; stroke-width: 0.8; stroke-linecap: square"/>
    </g>
    <g id="text_32">
     <!-- 0.4 -->
     <g transform="translate(415.607561 111.132725) scale(0.1 -0.1)">
      <use xlink:href="#DejaVuSans-30"/>
      <use xlink:href="#DejaVuSans-2e" x="63.623047"/>
      <use xlink:href="#DejaVuSans-34" x="95.410156"/>
     </g>
    </g>
   </g>
   <g id="xtick_28">
    <g id="line2d_34">
     <path d="M 409.201386 91.117912 
L 412.107676 91.198413 
" style="fill: none; stroke: #000000; stroke-width: 0.8; stroke-linecap: square"/>
    </g>
    <g id="text_33">
     <!-- 0.6 -->
     <g transform="translate(416.044252 94.86339) scale(0.1 -0.1)">
      <use xlink:href="#DejaVuSans-30"/>
      <use xlink:href="#DejaVuSans-2e" x="63.623047"/>
      <use xlink:href="#DejaVuSans-36" x="95.410156"/>
     </g>
    </g>
   </g>
   <g id="xtick_29">
    <g id="line2d_35">
     <path d="M 409.564499 74.510412 
L 412.487226 74.587636 
" style="fill: none; stroke: #000000; stroke-width: 0.8; stroke-linecap: square"/>
    </g>
    <g id="text_34">
     <!-- 0.8 -->
     <g transform="translate(416.485804 78.412954) scale(0.1 -0.1)">
      <use xlink:href="#DejaVuSans-30"/>
      <use xlink:href="#DejaVuSans-2e" x="63.623047"/>
      <use xlink:href="#DejaVuSans-38" x="95.410156"/>
     </g>
    </g>
   </g>
   <g id="xtick_30">
    <g id="line2d_36">
     <path d="M 409.931721 57.714981 
L 412.871072 57.788849 
" style="fill: none; stroke: #000000; stroke-width: 0.8; stroke-linecap: square"/>
    </g>
    <g id="text_35">
     <!-- 1.0 -->
     <g transform="translate(416.932298 61.778376) scale(0.1 -0.1)">
      <use xlink:href="#DejaVuSans-31"/>
      <use xlink:href="#DejaVuSans-2e" x="63.623047"/>
      <use xlink:href="#DejaVuSans-30" x="95.410156"/>
     </g>
    </g>
   </g>
  </g>
  <g id="axes_2">
   <g id="Poly3DCollection_2">
    <path d="M 293.290243 98.562872 
L 320.109098 100.43564 
L 322.959483 89.325801 
L 296.741931 87.964503 
z
" clip-path="url(#p5cb6dc32c7)" style="fill: #fd787f"/>
    <path d="M 320.109098 100.43564 
L 347.018165 103.820689 
L 349.269061 92.861689 
L 322.959483 89.325801 
z
" clip-path="url(#p5cb6dc32c7)" style="fill: #fd9297"/>
    <path d="M 347.018165 103.820689 
L 373.972664 109.092021 
L 375.61603 98.277527 
L 349.269061 92.861689 
z
" clip-path="url(#p5cb6dc32c7)" style="fill: #fec5c8"/>
    <path d="M 373.972664 109.092021 
L 400.998415 112.21227 
L 402.033488 101.29642 
L 375.61603 98.277527 
z
" clip-path="url(#p5cb6dc32c7)" style="fill: #fff8f8"/>
    <path d="M 289.680022 109.868883 
L 317.121535 111.668522 
L 320.109098 100.43564 
L 293.290243 98.562872 
z
" clip-path="url(#p5cb6dc32c7)" style="fill: #fd979c"/>
    <path d="M 317.121535 111.668522 
L 344.661367 115.434036 
L 347.018165 103.820689 
L 320.109098 100.43564 
z
" clip-path="url(#p5cb6dc32c7)" style="fill: #feb4b7"/>
    <path d="M 344.661367 115.434036 
L 372.24834 120.764511 
L 373.972664 109.092021 
L 347.018165 103.820689 
z
" clip-path="url(#p5cb6dc32c7)" style="fill: #ffe7e8"/>
    <path d="M 372.24834 120.764511 
L 399.910563 123.845409 
L 400.998415 112.21227 
L 373.972664 109.092021 
z
" clip-path="url(#p5cb6dc32c7)" style="fill: #e7ecff"/>
    <path d="M 285.894065 121.6045 
L 313.993129 123.752396 
L 317.121535 111.668522 
L 289.680022 109.868883 
z
" clip-path="url(#p5cb6dc32c7)" style="fill: #feb9bd"/>
    <path d="M 313.993129 123.752396 
L 342.190996 127.300323 
L 344.661367 115.434036 
L 317.121535 111.668522 
z
" clip-path="url(#p5cb6dc32c7)" style="fill: #fed6d8"/>
    <path d="M 342.190996 127.300323 
L 370.444197 132.63513 
L 372.24834 120.764511 
L 344.661367 115.434036 
z
" clip-path="url(#p5cb6dc32c7)" style="fill: #f5f7ff"/>
    <path d="M 370.444197 132.63513 
L 398.77872 135.580013 
L 399.910563 123.845409 
L 372.24834 120.764511 
z
" clip-path="url(#p5cb6dc32c7)" style="fill: #c8d4ff"/>
    <path d="M 281.949264 135.209817 
L 310.717848 137.032063 
L 313.993129 123.752396 
L 285.894065 121.6045 
z
" clip-path="url(#p5cb6dc32c7)" style="fill: #fee1e3"/>
    <path d="M 310.717848 137.032063 
L 339.600123 140.760906 
L 342.190996 127.300323 
L 313.993129 123.752396 
z
" clip-path="url(#p5cb6dc32c7)" style="fill: #fffbfb"/>
    <path d="M 339.600123 140.760906 
L 368.544741 145.797818 
L 370.444197 132.63513 
L 342.190996 127.300323 
z
" clip-path="url(#p5cb6dc32c7)" style="fill: #d3dcff"/>
    <path d="M 368.544741 145.797818 
L 397.577384 148.614179 
L 398.77872 135.580013 
L 370.444197 132.63513 
z
" clip-path="url(#p5cb6dc32c7)" style="fill: #a7b9ff"/>
   </g>
   <g id="text_36">
    <!-- CatBoost - weighted recall -->
    <g transform="translate(262.895625 16.318125) scale(0.12 -0.12)">
     <defs>
      <path id="DejaVuSans-77" d="M 269 3500 
L 844 3500 
L 1563 769 
L 2278 3500 
L 2956 3500 
L 3675 769 
L 4391 3500 
L 4966 3500 
L 4050 0 
L 3372 0 
L 2619 2869 
L 1863 0 
L 1184 0 
L 269 3500 
z
" transform="scale(0.015625)"/>
      <path id="DejaVuSans-69" d="M 603 3500 
L 1178 3500 
L 1178 0 
L 603 0 
L 603 3500 
z
M 603 4863 
L 1178 4863 
L 1178 4134 
L 603 4134 
L 603 4863 
z
" transform="scale(0.015625)"/>
      <path id="DejaVuSans-67" d="M 2906 1791 
Q 2906 2416 2648 2759 
Q 2391 3103 1925 3103 
Q 1463 3103 1205 2759 
Q 947 2416 947 1791 
Q 947 1169 1205 825 
Q 1463 481 1925 481 
Q 2391 481 2648 825 
Q 2906 1169 2906 1791 
z
M 3481 434 
Q 3481 -459 3084 -895 
Q 2688 -1331 1869 -1331 
Q 1566 -1331 1297 -1286 
Q 1028 -1241 775 -1147 
L 775 -588 
Q 1028 -725 1275 -790 
Q 1522 -856 1778 -856 
Q 2344 -856 2625 -561 
Q 2906 -266 2906 331 
L 2906 616 
Q 2728 306 2450 153 
Q 2172 0 1784 0 
Q 1141 0 747 490 
Q 353 981 353 1791 
Q 353 2603 747 3093 
Q 1141 3584 1784 3584 
Q 2172 3584 2450 3431 
Q 2728 3278 2906 2969 
L 2906 3500 
L 3481 3500 
L 3481 434 
z
" transform="scale(0.015625)"/>
      <path id="DejaVuSans-68" d="M 3513 2113 
L 3513 0 
L 2938 0 
L 2938 2094 
Q 2938 2591 2744 2837 
Q 2550 3084 2163 3084 
Q 1697 3084 1428 2787 
Q 1159 2491 1159 1978 
L 1159 0 
L 581 0 
L 581 4863 
L 1159 4863 
L 1159 2956 
Q 1366 3272 1645 3428 
Q 1925 3584 2291 3584 
Q 2894 3584 3203 3211 
Q 3513 2838 3513 2113 
z
" transform="scale(0.015625)"/>
      <path id="DejaVuSans-6c" d="M 603 4863 
L 1178 4863 
L 1178 0 
L 603 0 
L 603 4863 
z
" transform="scale(0.015625)"/>
     </defs>
     <use xlink:href="#DejaVuSans-43"/>
     <use xlink:href="#DejaVuSans-61" x="69.824219"/>
     <use xlink:href="#DejaVuSans-74" x="131.103516"/>
     <use xlink:href="#DejaVuSans-42" x="170.3125"/>
     <use xlink:href="#DejaVuSans-6f" x="238.916016"/>
     <use xlink:href="#DejaVuSans-6f" x="300.097656"/>
     <use xlink:href="#DejaVuSans-73" x="361.279297"/>
     <use xlink:href="#DejaVuSans-74" x="413.378906"/>
     <use xlink:href="#DejaVuSans-20" x="452.587891"/>
     <use xlink:href="#DejaVuSans-2d" x="484.375"/>
     <use xlink:href="#DejaVuSans-20" x="520.458984"/>
     <use xlink:href="#DejaVuSans-77" x="552.246094"/>
     <use xlink:href="#DejaVuSans-65" x="634.033203"/>
     <use xlink:href="#DejaVuSans-69" x="695.556641"/>
     <use xlink:href="#DejaVuSans-67" x="723.339844"/>
     <use xlink:href="#DejaVuSans-68" x="786.816406"/>
     <use xlink:href="#DejaVuSans-74" x="850.195312"/>
     <use xlink:href="#DejaVuSans-65" x="889.404297"/>
     <use xlink:href="#DejaVuSans-64" x="950.927734"/>
     <use xlink:href="#DejaVuSans-20" x="1014.404297"/>
     <use xlink:href="#DejaVuSans-72" x="1046.191406"/>
     <use xlink:href="#DejaVuSans-65" x="1085.054688"/>
     <use xlink:href="#DejaVuSans-63" x="1146.578125"/>
     <use xlink:href="#DejaVuSans-61" x="1201.558594"/>
     <use xlink:href="#DejaVuSans-6c" x="1262.837891"/>
     <use xlink:href="#DejaVuSans-6c" x="1290.621094"/>
    </g>
   </g>
  </g>
  <g id="patch_10">
   <path d="M 479.858824 219.259301 
L 676.8 219.259301 
L 676.8 22.318125 
L 479.858824 22.318125 
z
" style="fill: #ffffff"/>
  </g>
  <g id="pane3d_7">
   <g id="patch_11">
    <path d="M 509.810915 184.860969 
L 527.450547 137.813392 
L 525.886458 52.94475 
L 507.483374 91.403201 
" style="fill: #f2f2f2; opacity: 0.5; stroke: #f2f2f2; stroke-linejoin: miter"/>
   </g>
  </g>
  <g id="pane3d_8">
   <g id="patch_12">
    <path d="M 527.450547 137.813392 
L 645.381075 141.5369 
L 647.279841 55.979021 
L 525.886458 52.94475 
" style="fill: #e6e6e6; opacity: 0.5; stroke: #e6e6e6; stroke-linejoin: miter"/>
   </g>
  </g>
  <g id="pane3d_9">
   <g id="patch_13">
    <path d="M 509.810915 184.860969 
L 641.327761 189.499627 
L 645.381075 141.5369 
L 527.450547 137.813392 
" style="fill: #ececec; opacity: 0.5; stroke: #ececec; stroke-linejoin: miter"/>
   </g>
  </g>
  <g id="grid3d_7">
   <g id="Line3DCollection_7">
    <path d="M 518.100892 185.15336 
L 534.891498 138.048331 
L 533.543984 53.136153 
" style="fill: none; stroke: #b0b0b0; stroke-width: 0.8"/>
    <path d="M 545.513979 186.120232 
L 559.489981 138.824997 
L 558.860265 53.768942 
" style="fill: none; stroke: #b0b0b0; stroke-width: 0.8"/>
    <path d="M 573.043951 187.091226 
L 584.182436 139.60463 
L 584.276098 54.40422 
" style="fill: none; stroke: #b0b0b0; stroke-width: 0.8"/>
    <path d="M 600.691557 188.06637 
L 608.969403 140.387248 
L 609.792071 55.042001 
" style="fill: none; stroke: #b0b0b0; stroke-width: 0.8"/>
    <path d="M 628.457552 189.045689 
L 633.851424 141.172866 
L 635.408777 55.6823 
" style="fill: none; stroke: #b0b0b0; stroke-width: 0.8"/>
   </g>
  </g>
  <g id="grid3d_8">
   <g id="Line3DCollection_8">
    <path d="M 510.842557 84.383237 
L 513.021852 176.296913 
L 642.066223 180.761433 
" style="fill: none; stroke: #b0b0b0; stroke-width: 0.8"/>
    <path d="M 515.778022 74.069187 
L 517.746696 163.695038 
L 643.152341 167.909434 
" style="fill: none; stroke: #b0b0b0; stroke-width: 0.8"/>
    <path d="M 520.433817 64.339587 
L 522.211664 151.78629 
L 644.178155 155.771007 
" style="fill: none; stroke: #b0b0b0; stroke-width: 0.8"/>
    <path d="M 524.833058 55.146128 
L 526.437624 140.515013 
L 645.148553 144.288329 
" style="fill: none; stroke: #b0b0b0; stroke-width: 0.8"/>
   </g>
  </g>
  <g id="grid3d_9">
   <g id="Line3DCollection_9">
    <path d="M 645.417984 139.873804 
L 527.420136 136.163261 
L 509.76581 183.049852 
" style="fill: none; stroke: #b0b0b0; stroke-width: 0.8"/>
    <path d="M 645.774472 123.810535 
L 527.126422 120.226102 
L 509.329872 165.545624 
" style="fill: none; stroke: #b0b0b0; stroke-width: 0.8"/>
    <path d="M 646.134928 107.568514 
L 526.829469 104.11322 
L 508.888564 147.825804 
" style="fill: none; stroke: #b0b0b0; stroke-width: 0.8"/>
    <path d="M 646.499417 91.144742 
L 526.529224 87.821693 
L 508.441788 129.886385 
" style="fill: none; stroke: #b0b0b0; stroke-width: 0.8"/>
    <path d="M 646.868007 74.536149 
L 526.225631 71.348535 
L 507.98944 111.723259 
" style="fill: none; stroke: #b0b0b0; stroke-width: 0.8"/>
    <path d="M 647.240769 57.7396 
L 525.918635 54.690689 
L 507.531416 93.332215 
" style="fill: none; stroke: #b0b0b0; stroke-width: 0.8"/>
   </g>
  </g>
  <g id="axis3d_7">
   <g id="line2d_37">
    <path d="M 509.810915 184.860969 
L 641.327761 189.499627 
" style="fill: none; stroke: #000000; stroke-width: 0.8; stroke-linecap: square"/>
   </g>
   <g id="xtick_31">
    <g id="line2d_38">
     <path d="M 518.25061 184.733335 
L 517.800624 185.995746 
" style="fill: none; stroke: #000000; stroke-width: 0.8; stroke-linecap: square"/>
    </g>
    <g id="text_37">
     <!-- 0.0 -->
     <g transform="translate(508.254762 208.947746) scale(0.1 -0.1)">
      <use xlink:href="#DejaVuSans-30"/>
      <use xlink:href="#DejaVuSans-2e" x="63.623047"/>
      <use xlink:href="#DejaVuSans-30" x="95.410156"/>
     </g>
    </g>
   </g>
   <g id="xtick_32">
    <g id="line2d_39">
     <path d="M 545.638627 185.698419 
L 545.263989 186.966209 
" style="fill: none; stroke: #000000; stroke-width: 0.8; stroke-linecap: square"/>
    </g>
    <g id="text_38">
     <!-- 0.2 -->
     <g transform="translate(535.924784 209.958606) scale(0.1 -0.1)">
      <use xlink:href="#DejaVuSans-30"/>
      <use xlink:href="#DejaVuSans-2e" x="63.623047"/>
      <use xlink:href="#DejaVuSans-32" x="95.410156"/>
     </g>
    </g>
   </g>
   <g id="xtick_33">
    <g id="line2d_40">
     <path d="M 573.143314 186.667614 
L 572.84467 187.940818 
" style="fill: none; stroke: #000000; stroke-width: 0.8; stroke-linecap: square"/>
    </g>
    <g id="text_39">
     <!-- 0.4 -->
     <g transform="translate(563.713911 210.973818) scale(0.1 -0.1)">
      <use xlink:href="#DejaVuSans-30"/>
      <use xlink:href="#DejaVuSans-2e" x="63.623047"/>
      <use xlink:href="#DejaVuSans-34" x="95.410156"/>
     </g>
    </g>
   </g>
   <g id="xtick_34">
    <g id="line2d_41">
     <path d="M 600.765417 187.640946 
L 600.543423 188.919599 
" style="fill: none; stroke: #000000; stroke-width: 0.8; stroke-linecap: square"/>
    </g>
    <g id="text_40">
     <!-- 0.6 -->
     <g transform="translate(591.622916 211.99341) scale(0.1 -0.1)">
      <use xlink:href="#DejaVuSans-30"/>
      <use xlink:href="#DejaVuSans-2e" x="63.623047"/>
      <use xlink:href="#DejaVuSans-36" x="95.410156"/>
     </g>
    </g>
   </g>
   <g id="xtick_35">
    <g id="line2d_42">
     <path d="M 628.50569 188.618442 
L 628.361006 189.902579 
" style="fill: none; stroke: #000000; stroke-width: 0.8; stroke-linecap: square"/>
    </g>
    <g id="text_41">
     <!-- 0.8 -->
     <g transform="translate(619.652574 213.017409) scale(0.1 -0.1)">
      <use xlink:href="#DejaVuSans-30"/>
      <use xlink:href="#DejaVuSans-2e" x="63.623047"/>
      <use xlink:href="#DejaVuSans-38" x="95.410156"/>
     </g>
    </g>
   </g>
   <g id="text_42">
    <!-- $\alpha_{rs}$ over -->
    <g transform="translate(552.714892 225.04975) rotate(-357.979989) scale(0.1 -0.1)">
     <use xlink:href="#DejaVuSans-Oblique-3b1" transform="translate(0 0.84375)"/>
     <use xlink:href="#DejaVuSans-Oblique-72" transform="translate(65.917969 -15.5625) scale(0.7)"/>
     <use xlink:href="#DejaVuSans-Oblique-73" transform="translate(94.697266 -15.5625) scale(0.7)"/>
     <use xlink:href="#DejaVuSans-20" transform="translate(133.901367 0.84375)"/>
     <use xlink:href="#DejaVuSans-6f" transform="translate(165.688477 0.84375)"/>
     <use xlink:href="#DejaVuSans-76" transform="translate(226.870117 0.84375)"/>
     <use xlink:href="#DejaVuSans-65" transform="translate(286.049805 0.84375)"/>
     <use xlink:href="#DejaVuSans-72" transform="translate(347.573242 0.84375)"/>
    </g>
   </g>
  </g>
  <g id="axis3d_8">
   <g id="line2d_43">
    <path d="M 645.381075 141.5369 
L 641.327761 189.499627 
" style="fill: none; stroke: #000000; stroke-width: 0.8; stroke-linecap: square"/>
   </g>
   <g id="xtick_36">
    <g id="line2d_44">
     <path d="M 641.023609 180.725362 
L 644.151952 180.833593 
" style="fill: none; stroke: #000000; stroke-width: 0.8; stroke-linecap: square"/>
    </g>
    <g id="text_43">
     <!-- 0.85 -->
     <g transform="translate(645.296866 198.909218) scale(0.1 -0.1)">
      <use xlink:href="#DejaVuSans-30"/>
      <use xlink:href="#DejaVuSans-2e" x="63.623047"/>
      <use xlink:href="#DejaVuSans-38" x="95.410156"/>
      <use xlink:href="#DejaVuSans-35" x="159.033203"/>
     </g>
    </g>
   </g>
   <g id="xtick_37">
    <g id="line2d_45">
     <path d="M 642.139411 167.875394 
L 645.178675 167.977531 
" style="fill: none; stroke: #000000; stroke-width: 0.8; stroke-linecap: square"/>
    </g>
    <g id="text_44">
     <!-- 0.90 -->
     <g transform="translate(645.971284 185.786523) scale(0.1 -0.1)">
      <use xlink:href="#DejaVuSans-30"/>
      <use xlink:href="#DejaVuSans-2e" x="63.623047"/>
      <use xlink:href="#DejaVuSans-39" x="95.410156"/>
      <use xlink:href="#DejaVuSans-30" x="159.033203"/>
     </g>
    </g>
   </g>
   <g id="xtick_38">
    <g id="line2d_46">
     <path d="M 643.193266 155.73883 
L 646.148383 155.835376 
" style="fill: none; stroke: #000000; stroke-width: 0.8; stroke-linecap: square"/>
    </g>
    <g id="text_45">
     <!-- 0.95 -->
     <g transform="translate(646.608341 173.390785) scale(0.1 -0.1)">
      <use xlink:href="#DejaVuSans-30"/>
      <use xlink:href="#DejaVuSans-2e" x="63.623047"/>
      <use xlink:href="#DejaVuSans-39" x="95.410156"/>
      <use xlink:href="#DejaVuSans-35" x="159.033203"/>
     </g>
    </g>
   </g>
   <g id="xtick_39">
    <g id="line2d_47">
     <path d="M 644.190193 144.257866 
L 647.065697 144.349266 
" style="fill: none; stroke: #000000; stroke-width: 0.8; stroke-linecap: square"/>
    </g>
    <g id="text_46">
     <!-- 1.00 -->
     <g transform="translate(647.211058 161.663227) scale(0.1 -0.1)">
      <use xlink:href="#DejaVuSans-31"/>
      <use xlink:href="#DejaVuSans-2e" x="63.623047"/>
      <use xlink:href="#DejaVuSans-30" x="95.410156"/>
      <use xlink:href="#DejaVuSans-30" x="159.033203"/>
     </g>
    </g>
   </g>
   <g id="text_47">
    <!-- $\alpha_{rs}$ under -->
    <g transform="translate(674.273452 209.41097) rotate(-85.169431) scale(0.1 -0.1)">
     <use xlink:href="#DejaVuSans-Oblique-3b1" transform="translate(0 0.015625)"/>
     <use xlink:href="#DejaVuSans-Oblique-72" transform="translate(65.917969 -16.390625) scale(0.7)"/>
     <use xlink:href="#DejaVuSans-Oblique-73" transform="translate(94.697266 -16.390625) scale(0.7)"/>
     <use xlink:href="#DejaVuSans-20" transform="translate(133.901367 0.015625)"/>
     <use xlink:href="#DejaVuSans-75" transform="translate(165.688477 0.015625)"/>
     <use xlink:href="#DejaVuSans-6e" transform="translate(229.067383 0.015625)"/>
     <use xlink:href="#DejaVuSans-64" transform="translate(292.446289 0.015625)"/>
     <use xlink:href="#DejaVuSans-65" transform="translate(355.922852 0.015625)"/>
     <use xlink:href="#DejaVuSans-72" transform="translate(417.446289 0.015625)"/>
    </g>
   </g>
  </g>
  <g id="axis3d_9">
   <g id="line2d_48">
    <path d="M 645.381075 141.5369 
L 647.279841 55.979021 
" style="fill: none; stroke: #000000; stroke-width: 0.8; stroke-linecap: square"/>
   </g>
   <g id="xtick_40">
    <g id="line2d_49">
     <path d="M 644.465433 139.84385 
L 647.323504 139.933725 
" style="fill: none; stroke: #000000; stroke-width: 0.8; stroke-linecap: square"/>
    </g>
    <g id="text_48">
     <!-- 0.0 -->
     <g transform="translate(651.077856 143.139926) scale(0.1 -0.1)">
      <use xlink:href="#DejaVuSans-30"/>
      <use xlink:href="#DejaVuSans-2e" x="63.623047"/>
      <use xlink:href="#DejaVuSans-30" x="95.410156"/>
     </g>
    </g>
   </g>
   <g id="xtick_41">
    <g id="line2d_50">
     <path d="M 644.816625 123.781598 
L 647.69059 123.868422 
" style="fill: none; stroke: #000000; stroke-width: 0.8; stroke-linecap: square"/>
    </g>
    <g id="text_49">
     <!-- 0.2 -->
     <g transform="translate(651.505063 127.223934) scale(0.1 -0.1)">
      <use xlink:href="#DejaVuSans-30"/>
      <use xlink:href="#DejaVuSans-2e" x="63.623047"/>
      <use xlink:href="#DejaVuSans-32" x="95.410156"/>
     </g>
    </g>
   </g>
   <g id="xtick_42">
    <g id="line2d_51">
     <path d="M 645.171724 107.540618 
L 648.061762 107.624319 
" style="fill: none; stroke: #000000; stroke-width: 0.8; stroke-linecap: square"/>
    </g>
    <g id="text_50">
     <!-- 0.4 -->
     <g transform="translate(651.936973 111.132725) scale(0.1 -0.1)">
      <use xlink:href="#DejaVuSans-30"/>
      <use xlink:href="#DejaVuSans-2e" x="63.623047"/>
      <use xlink:href="#DejaVuSans-34" x="95.410156"/>
     </g>
    </g>
   </g>
   <g id="xtick_43">
    <g id="line2d_52">
     <path d="M 645.530797 91.117912 
L 648.437088 91.198413 
" style="fill: none; stroke: #000000; stroke-width: 0.8; stroke-linecap: square"/>
    </g>
    <g id="text_51">
     <!-- 0.6 -->
     <g transform="translate(652.373664 94.86339) scale(0.1 -0.1)">
      <use xlink:href="#DejaVuSans-30"/>
      <use xlink:href="#DejaVuSans-2e" x="63.623047"/>
      <use xlink:href="#DejaVuSans-36" x="95.410156"/>
     </g>
    </g>
   </g>
   <g id="xtick_44">
    <g id="line2d_53">
     <path d="M 645.893911 74.510412 
L 648.816638 74.587636 
" style="fill: none; stroke: #000000; stroke-width: 0.8; stroke-linecap: square"/>
    </g>
    <g id="text_52">
     <!-- 0.8 -->
     <g transform="translate(652.815215 78.412954) scale(0.1 -0.1)">
      <use xlink:href="#DejaVuSans-30"/>
      <use xlink:href="#DejaVuSans-2e" x="63.623047"/>
      <use xlink:href="#DejaVuSans-38" x="95.410156"/>
     </g>
    </g>
   </g>
   <g id="xtick_45">
    <g id="line2d_54">
     <path d="M 646.261133 57.714981 
L 649.200483 57.788849 
" style="fill: none; stroke: #000000; stroke-width: 0.8; stroke-linecap: square"/>
    </g>
    <g id="text_53">
     <!-- 1.0 -->
     <g transform="translate(653.26171 61.778376) scale(0.1 -0.1)">
      <use xlink:href="#DejaVuSans-31"/>
      <use xlink:href="#DejaVuSans-2e" x="63.623047"/>
      <use xlink:href="#DejaVuSans-30" x="95.410156"/>
     </g>
    </g>
   </g>
  </g>
  <g id="axes_3">
   <g id="Poly3DCollection_3">
    <path d="M 529.934288 116.596352 
L 556.581288 117.547139 
L 559.426986 108.120066 
L 533.387087 107.435021 
z
" clip-path="url(#p8ab73069b0)" style="fill: #fd2631"/>
    <path d="M 556.581288 117.547139 
L 583.335317 119.108907 
L 585.57232 109.606418 
L 559.426986 108.120066 
z
" clip-path="url(#p8ab73069b0)" style="fill: #fd2a34"/>
    <path d="M 583.335317 119.108907 
L 610.176476 121.663652 
L 611.801735 111.948213 
L 585.57232 109.606418 
z
" clip-path="url(#p8ab73069b0)" style="fill: #fd333d"/>
    <path d="M 610.176476 121.663652 
L 637.105833 123.760711 
L 638.118568 113.824058 
L 611.801735 111.948213 
z
" clip-path="url(#p8ab73069b0)" style="fill: #fc3f48"/>
    <path d="M 526.317243 126.289508 
L 553.597307 127.246771 
L 556.581288 117.547139 
L 529.934288 116.596352 
z
" clip-path="url(#p8ab73069b0)" style="fill: #fd2a34"/>
    <path d="M 553.597307 127.246771 
L 580.990779 129.202051 
L 583.335317 119.108907 
L 556.581288 117.547139 
z
" clip-path="url(#p8ab73069b0)" style="fill: #fd2d37"/>
    <path d="M 580.990779 129.202051 
L 608.469929 132.185764 
L 610.176476 121.663652 
L 583.335317 119.108907 
z
" clip-path="url(#p8ab73069b0)" style="fill: #fd3942"/>
    <path d="M 608.469929 132.185764 
L 636.039196 134.453592 
L 637.105833 123.760711 
L 610.176476 121.663652 
z
" clip-path="url(#p8ab73069b0)" style="fill: #fc464f"/>
    <path d="M 522.525074 136.597018 
L 550.47024 137.811286 
L 553.597307 127.246771 
L 526.317243 126.289508 
z
" clip-path="url(#p8ab73069b0)" style="fill: #fd2d37"/>
    <path d="M 550.47024 137.811286 
L 578.53106 139.872998 
L 580.990779 129.202051 
L 553.597307 127.246771 
z
" clip-path="url(#p8ab73069b0)" style="fill: #fd333d"/>
    <path d="M 578.53106 139.872998 
L 606.679607 143.245839 
L 608.469929 132.185764 
L 580.990779 129.202051 
z
" clip-path="url(#p8ab73069b0)" style="fill: #fc4049"/>
    <path d="M 606.679607 143.245839 
L 634.920986 145.634124 
L 636.039196 134.453592 
L 608.469929 132.185764 
z
" clip-path="url(#p8ab73069b0)" style="fill: #fc535c"/>
    <path d="M 518.554934 148.018935 
L 547.189689 149.22545 
L 550.47024 137.811286 
L 522.525074 136.597018 
z
" clip-path="url(#p8ab73069b0)" style="fill: #fd343e"/>
    <path d="M 547.189689 149.22545 
L 575.948685 151.74193 
L 578.53106 139.872998 
L 550.47024 137.811286 
z
" clip-path="url(#p8ab73069b0)" style="fill: #fd3a44"/>
    <path d="M 575.948685 151.74193 
L 604.793809 155.543849 
L 606.679607 143.245839 
L 578.53106 139.872998 
z
" clip-path="url(#p8ab73069b0)" style="fill: #fc4952"/>
    <path d="M 604.793809 155.543849 
L 633.733505 158.092574 
L 634.920986 145.634124 
L 606.679607 143.245839 
z
" clip-path="url(#p8ab73069b0)" style="fill: #fd7077"/>
   </g>
   <g id="text_54">
    <!-- CatBoost - F1-score -->
    <g transform="translate(519.642849 16.318125) scale(0.12 -0.12)">
     <defs>
      <path id="DejaVuSans-46" d="M 628 4666 
L 3309 4666 
L 3309 4134 
L 1259 4134 
L 1259 2759 
L 3109 2759 
L 3109 2228 
L 1259 2228 
L 1259 0 
L 628 0 
L 628 4666 
z
" transform="scale(0.015625)"/>
     </defs>
     <use xlink:href="#DejaVuSans-43"/>
     <use xlink:href="#DejaVuSans-61" x="69.824219"/>
     <use xlink:href="#DejaVuSans-74" x="131.103516"/>
     <use xlink:href="#DejaVuSans-42" x="170.3125"/>
     <use xlink:href="#DejaVuSans-6f" x="238.916016"/>
     <use xlink:href="#DejaVuSans-6f" x="300.097656"/>
     <use xlink:href="#DejaVuSans-73" x="361.279297"/>
     <use xlink:href="#DejaVuSans-74" x="413.378906"/>
     <use xlink:href="#DejaVuSans-20" x="452.587891"/>
     <use xlink:href="#DejaVuSans-2d" x="484.375"/>
     <use xlink:href="#DejaVuSans-20" x="520.458984"/>
     <use xlink:href="#DejaVuSans-46" x="552.246094"/>
     <use xlink:href="#DejaVuSans-31" x="609.765625"/>
     <use xlink:href="#DejaVuSans-2d" x="673.388672"/>
     <use xlink:href="#DejaVuSans-73" x="709.472656"/>
     <use xlink:href="#DejaVuSans-63" x="761.572266"/>
     <use xlink:href="#DejaVuSans-6f" x="816.552734"/>
     <use xlink:href="#DejaVuSans-72" x="877.734375"/>
     <use xlink:href="#DejaVuSans-65" x="916.597656"/>
    </g>
   </g>
  </g>
 </g>
 <defs>
  <clipPath id="p3da5350d73">
   <rect x="7.2" y="22.318125" width="196.941176" height="196.941176"/>
  </clipPath>
  <clipPath id="p5cb6dc32c7">
   <rect x="243.529412" y="22.318125" width="196.941176" height="196.941176"/>
  </clipPath>
  <clipPath id="p8ab73069b0">
   <rect x="479.858824" y="22.318125" width="196.941176" height="196.941176"/>
  </clipPath>
 </defs>
</svg>
